<svg width="200" height="200" viewBox="0 0 200 200" fill="currentColor" xmlns="http://www.w3.org/2000/svg">
<path d="M77.5475 8.37342C77.5475 9.47342 88.4475 24.1734 89.9475 25.1734C92.1475 26.6734 88.6475 28.2734 82.3475 28.5734C77.0475 28.7734 60.3475 30.3734 57.0475 30.9734C56.5475 31.0734 59.1475 32.1734 63.0475 33.4734C68.0475 35.1734 70.4475 35.5734 71.7475 34.8734C72.7475 34.2734 73.3475 33.4734 73.0475 32.8734C72.6475 32.3734 73.1475 31.9734 73.9475 31.9734C77.2475 31.9734 75.3475 34.1734 70.0475 36.5734C65.8475 38.3734 62.7475 38.9734 57.2475 38.9734C53.2475 38.9734 48.0475 39.6734 45.5475 40.3734C40.4475 41.9734 42.9475 42.3734 50.5475 41.0734C53.0475 40.6734 56.1475 40.6734 57.5475 41.0734C59.8475 41.6734 59.8475 41.7734 57.8475 41.8734C56.6475 41.9734 55.4475 42.3734 55.1475 42.8734C54.8475 43.3734 53.4475 43.9734 52.1475 44.3734C50.8475 44.6734 48.3475 46.2734 46.5475 47.9734C42.8475 51.4734 40.9475 51.8734 42.5475 48.9734C43.1475 47.8734 43.3475 46.9734 43.0475 46.9734C42.8475 46.9734 41.1475 49.4734 39.4475 52.4734C37.7475 55.4734 34.0475 59.9734 31.2475 62.4734L26.0475 67.0734L31.3475 63.4734C34.1475 61.4734 38.1475 57.9734 40.0475 55.7734C41.8475 53.5734 44.3475 51.0734 45.4475 50.2734C48.6475 48.0734 59.2475 43.6734 57.5475 45.2734C56.7475 46.0734 51.8475 50.3734 46.7475 54.9734C41.2475 59.7734 37.6475 63.7734 37.9475 64.5734C38.8475 66.8734 35.4475 73.9734 33.4475 73.9734C31.5475 73.9734 24.0475 82.1734 24.0475 84.2734C24.0475 84.9734 23.0475 86.4734 21.7475 87.7734C18.5475 90.9734 19.0475 91.8734 23.2475 90.4734C25.8475 89.5734 27.4475 88.1734 28.7475 85.4734C29.8475 83.4734 30.9475 81.9734 31.2475 82.2734C31.4475 82.5734 29.6475 86.9734 27.0475 92.1734C22.8475 100.673 17.4475 107.973 15.2474 107.973C14.8474 107.973 16.0474 106.373 18.1475 104.473C20.1475 102.573 21.5475 100.673 21.2475 100.373C20.2475 99.2734 16.6475 101.073 16.0474 102.973C15.7474 103.973 14.1475 106.273 12.5474 107.873C10.0474 110.573 9.94745 110.973 11.6474 110.973C14.7474 110.973 20.5475 108.173 21.2475 106.473C21.6475 105.373 22.0475 105.173 22.5475 105.873C22.9475 106.573 24.1475 105.973 25.7475 104.073C27.2475 102.473 28.2475 100.873 27.9475 100.573C27.7475 100.273 27.8475 100.173 28.2475 100.473C29.4475 101.373 31.5475 98.6734 31.5475 96.0734C31.5475 94.0734 31.7475 93.7734 32.5475 94.9734C33.2475 96.0734 33.9475 95.3734 35.6475 91.5734C37.4475 87.4734 37.7475 85.3734 37.2475 79.5734C36.7475 73.0734 37.0475 71.9734 39.7475 66.8734C41.3475 63.7734 44.9475 59.0734 47.7475 56.3734C50.5475 53.6734 52.2475 52.4734 51.6475 53.6734C51.0475 54.8734 50.0475 56.1734 49.4475 56.5734C46.0475 58.6734 39.2475 72.9734 41.6475 72.9734C42.1475 72.9734 42.5475 72.0734 42.5475 70.9734C42.5475 68.5734 44.6475 63.9734 45.7475 63.9734C47.2475 63.9734 43.7475 74.3734 41.6475 75.9734C40.5475 76.7734 38.5475 84.4734 38.6475 87.5734C38.7475 90.4734 38.7475 90.4734 39.4475 87.9734C40.0475 85.7734 40.2475 85.6734 40.8475 87.2734C41.8475 89.8734 41.7475 92.1734 40.6475 91.4734C38.7475 90.3734 38.3475 101.573 39.9475 109.573C41.5475 117.273 49.3475 135.073 53.0475 139.473C53.9475 140.573 54.4475 140.873 54.0475 140.273C53.1475 138.473 54.0475 138.673 55.6475 140.673C56.6475 141.773 56.6475 142.073 55.7475 141.573C52.7475 139.773 55.6475 145.273 60.4475 150.373L64.0475 154.173L59.8475 152.073C57.3475 150.873 55.5475 150.373 55.5475 150.973C55.5475 153.273 65.5475 161.773 72.6475 165.573C79.8475 169.373 86.5475 172.273 86.5475 171.473C86.5475 170.673 80.4475 166.873 78.5475 166.473C75.9475 165.973 69.5475 162.073 69.5475 161.073C69.5475 160.573 67.7475 159.473 65.6475 158.473C63.4475 157.473 60.7475 155.773 59.6475 154.573C58.0475 152.873 59.4475 153.273 65.6475 156.373C70.1475 158.573 73.2475 160.573 72.5475 160.773C71.1475 161.273 79.7475 164.573 87.1475 166.473C89.9475 167.173 93.2475 168.273 94.4475 168.973C96.0475 169.773 96.5475 169.773 96.0475 169.073C95.5475 168.273 96.2475 168.073 98.2475 168.573C101.947 169.473 102.447 169.973 99.4475 169.973C97.3475 170.073 97.2475 170.173 98.8475 171.073C99.9475 171.673 100.547 173.273 100.547 175.473C100.547 179.173 99.0475 179.973 97.1475 177.473C96.0475 175.973 81.6475 170.573 80.8475 171.373C80.0475 172.173 83.6475 176.873 85.3475 177.273C86.3475 177.573 85.8475 177.773 84.3475 177.873C82.1475 177.973 81.0475 177.073 79.0475 174.073C76.2475 169.973 73.7475 168.973 66.3475 168.973H62.4475L64.5475 171.973C66.4475 174.573 66.4475 174.973 65.0475 174.973C64.0475 174.973 61.7475 173.573 59.8475 171.973C55.3475 167.973 52.5475 168.173 42.4475 173.173L34.0475 177.373L38.0475 177.673C40.2475 177.873 43.9475 178.473 46.2475 179.073C49.5475 179.973 50.8475 179.973 52.0475 178.973C54.0475 177.373 53.0475 175.973 49.7475 175.873C47.5475 175.773 47.4475 175.573 49.1475 175.273C50.3475 175.073 60.5475 175.973 71.9475 177.373C83.2475 178.873 97.8475 180.073 104.247 180.073C112.447 180.173 114.947 180.473 112.547 180.973L109.047 181.773L113.047 181.673C115.747 181.573 117.047 180.973 117.047 180.073C117.047 178.973 115.447 178.673 109.347 178.873L101.547 179.073V175.073V170.973H106.347C112.647 170.973 128.347 168.273 135.147 165.973C138.047 165.073 140.247 164.573 139.947 165.073C139.447 165.873 130.547 170.273 124.647 172.573C121.447 173.873 121.347 173.973 124.047 173.473C125.747 173.073 128.147 172.573 129.547 172.273C131.947 171.673 131.947 171.673 130.247 174.073C127.447 178.073 126.247 180.673 128.747 177.573C134.847 169.973 141.147 165.073 138.547 169.873C138.047 170.973 137.647 172.873 137.647 174.173C137.747 176.173 137.847 176.273 138.247 174.473C138.547 173.373 139.847 170.973 141.147 168.973C144.147 164.573 144.147 164.473 140.647 162.973C138.347 162.073 137.247 162.073 135.347 163.073C132.747 164.473 110.547 164.973 110.547 163.673C110.547 163.173 115.647 162.973 121.847 163.173C132.247 163.473 133.247 163.273 136.347 161.173L139.647 158.773L143.547 162.873C145.747 165.173 148.247 166.973 149.047 166.973C151.347 166.973 151.247 166.973 155.547 168.473C160.047 170.073 160.047 170.073 158.147 165.573C156.847 162.573 155.947 161.973 149.347 159.973C139.747 157.173 139.847 157.173 141.547 157.073C143.747 156.973 160.047 161.573 166.447 164.073C171.747 166.273 179.547 170.773 179.547 171.673C179.547 171.973 177.947 171.173 175.947 169.973C174.047 168.773 172.247 167.973 171.947 168.173C170.847 169.273 172.947 171.673 177.347 174.473C179.847 176.073 182.647 178.573 183.347 179.973C184.647 182.273 184.647 182.173 184.247 177.673C183.747 172.473 179.447 164.973 176.947 164.973C176.147 164.973 175.547 164.273 175.747 163.373C175.947 162.473 174.847 160.873 173.347 159.773C170.747 157.773 170.647 157.773 165.747 159.473C162.047 160.873 160.447 160.973 158.947 160.173C157.147 159.073 157.147 159.073 159.047 158.973C161.047 158.873 164.547 156.773 164.547 155.673C164.547 153.473 150.247 152.273 143.247 153.873C141.247 154.373 139.347 154.373 139.047 153.973C138.747 153.473 140.447 152.873 142.747 152.473C147.547 151.673 156.047 145.773 159.947 140.673C163.547 135.973 163.147 134.973 159.347 138.673C154.747 142.973 147.547 147.573 142.447 149.573C140.047 150.573 137.647 151.973 137.247 152.673C136.247 154.173 132.247 154.473 132.747 152.873C132.947 152.273 136.047 150.673 139.547 149.273C143.147 147.873 147.547 145.273 149.447 143.573C151.347 141.873 152.447 141.073 152.047 141.873C151.547 142.773 151.747 143.073 152.647 142.773C153.447 142.473 153.947 141.673 153.747 141.073C153.647 140.373 153.947 140.073 154.447 140.373C154.947 140.773 156.947 139.673 158.847 137.973C160.747 136.373 162.447 135.273 162.747 135.573C163.347 136.073 168.547 127.773 168.547 126.373C168.547 126.073 167.847 126.273 167.047 126.973C165.147 128.573 165.047 127.573 166.947 125.673C170.047 122.573 176.147 105.173 177.447 95.4734C178.147 90.5734 178.247 90.5734 178.947 99.2734C179.547 105.073 179.447 109.173 178.747 111.273C177.747 113.973 177.647 113.373 178.047 106.973C178.247 102.873 178.147 100.373 177.847 101.473C176.547 106.373 171.647 119.873 170.247 122.673C169.347 124.373 168.847 125.973 169.147 126.273C169.847 126.973 163.347 138.573 160.347 142.073C159.047 143.473 156.047 146.173 153.647 147.973C151.247 149.873 149.747 151.573 150.447 151.773C151.047 151.973 152.347 151.573 153.247 150.773C154.647 149.673 154.747 149.673 154.147 150.773C153.547 151.873 154.047 151.973 156.547 151.573C160.047 151.073 163.847 148.273 162.947 146.773C162.647 146.373 162.747 146.073 163.247 146.173C164.847 146.673 177.047 133.573 180.347 127.873C182.147 124.773 183.547 120.973 183.547 119.373C183.547 116.573 183.447 116.573 181.647 120.473C180.647 122.673 179.047 125.373 178.147 126.473C176.647 128.273 176.647 128.173 178.047 124.773C178.847 122.773 179.247 120.273 178.947 119.273C178.547 117.973 178.647 117.773 179.347 118.773C181.247 121.573 183.847 106.873 183.347 95.4734C183.147 89.7734 183.147 85.1734 183.247 85.2734C183.347 85.4734 184.547 88.8734 186.047 92.9734C188.447 100.173 188.547 100.273 188.047 95.6734C187.847 93.0734 186.847 89.5734 185.947 87.8734C185.147 86.1734 184.247 82.2734 184.047 79.2734C183.747 73.1734 182.547 70.7734 182.447 76.0734C182.447 79.1734 182.247 78.8734 179.947 72.9734C176.347 63.8734 174.847 59.2734 173.547 53.4734C172.947 50.6734 171.747 47.7734 170.847 46.9734C169.447 45.6734 169.347 45.6734 169.847 47.1734C170.147 48.0734 170.747 50.5734 171.047 52.6734L171.647 56.4734L169.147 51.9734C166.447 46.8734 159.547 38.8734 159.547 40.6734C159.547 41.2734 159.947 42.1734 160.547 42.4734C161.047 42.7734 162.047 44.0734 162.747 45.2734C163.647 46.9734 162.947 46.6734 159.447 43.9734C154.547 39.9734 150.947 37.6734 148.347 36.6734C145.247 35.5734 146.347 36.7734 151.847 40.3734C154.647 42.2734 159.047 45.9734 161.547 48.6734L166.047 53.4734L161.047 48.8734C153.747 42.0734 144.947 36.5734 147.147 40.0734C147.447 40.6734 146.347 40.4734 144.747 39.5734C143.047 38.6734 141.347 37.5734 141.047 36.9734C140.747 36.4734 138.747 35.9734 136.747 35.9734C134.747 35.8734 131.347 35.2734 129.347 34.5734C127.247 33.7734 125.147 33.5734 124.347 34.0734C123.647 34.5734 122.647 34.9734 122.047 34.9734C121.547 34.9734 121.747 34.4734 122.547 33.9734C123.847 33.1734 123.747 32.9734 122.347 32.9734C121.347 32.9734 120.547 33.4734 120.547 34.0734C120.547 34.6734 119.747 34.8734 118.847 34.6734C117.847 34.3734 113.447 33.3734 109.047 32.3734C103.047 31.1734 101.547 30.4734 103.047 29.8734C105.947 28.7734 109.447 28.7734 107.647 29.8734C105.647 31.1734 113.647 32.6734 121.047 32.3734C124.547 32.2734 129.047 32.8734 131.847 33.7734C136.047 35.1734 136.747 35.2734 137.547 33.9734C138.247 32.9734 138.547 32.8734 138.547 33.6734C138.547 35.5734 145.447 35.3734 146.147 33.4734C146.647 32.3734 147.147 32.2734 147.947 32.8734C149.247 33.9734 153.547 33.1734 153.547 31.8734C153.547 31.3734 154.147 31.2734 154.947 31.5734C155.647 31.8734 156.947 31.3734 157.847 30.5734C158.747 29.6734 160.047 28.9734 160.747 28.9734C161.547 28.9734 162.547 28.5734 163.047 28.0734C163.647 27.4734 166.347 26.6734 169.047 26.1734L174.047 25.3734L170.547 23.1734C167.147 21.0734 161.947 20.0734 162.947 21.8734C163.247 22.2734 161.547 21.9734 159.147 21.1734C154.347 19.3734 152.247 20.1734 151.247 23.9734C150.747 25.8734 151.147 25.9734 156.347 25.4734C162.947 24.8734 162.247 25.4734 155.247 26.4734C150.947 27.0734 150.547 27.2734 151.747 28.7734C152.847 30.2734 152.847 30.2734 151.447 29.1734C150.147 28.1734 148.647 28.1734 145.047 28.9734C138.247 30.4734 138.347 29.4734 145.247 27.6734C148.447 26.7734 149.747 26.1734 148.047 26.2734C145.347 26.4734 145.047 26.2734 145.347 23.6734C145.647 21.0734 145.547 20.9734 142.847 21.5734C137.447 22.9734 131.547 26.0734 129.947 28.3734C128.347 30.9734 125.247 32.2734 123.847 30.8734C123.347 30.3734 119.447 29.3734 115.047 28.5734C109.847 27.6734 108.247 27.0734 110.547 27.0734C112.547 26.9734 116.747 27.6734 120.047 28.4734C123.247 29.3734 126.547 29.7734 127.247 29.5734C129.347 28.6734 128.747 26.9734 126.247 26.9734C123.547 26.9734 121.547 25.2734 121.547 22.9734C121.547 22.0734 120.347 20.2734 118.947 18.8734L116.247 16.4734L117.447 18.7734C119.747 23.1734 117.647 22.2734 112.247 16.5734C109.247 13.4734 106.347 10.9734 105.747 10.9734C105.247 10.9734 107.847 14.1734 111.647 18.1734C115.447 22.0734 118.547 25.3734 118.547 25.4734C118.547 25.4734 115.647 25.3734 112.047 25.1734C106.547 24.7734 105.047 24.2734 102.747 21.9734C101.147 20.3734 97.4475 18.4734 94.0475 17.4734C86.3475 15.2734 81.0475 12.5734 79.1475 9.77342C78.2475 8.57342 77.5475 7.97342 77.5475 8.37342ZM91.9475 20.4734C94.1475 22.3734 95.4475 23.9734 94.8475 23.9734C93.5475 23.9734 85.7475 17.0734 87.0475 16.9734C87.6475 16.9734 89.8475 18.5734 91.9475 20.4734ZM99.3475 26.6734C98.3475 26.8734 96.5475 26.8734 95.3475 26.6734C94.0475 26.4734 94.8475 26.2734 97.0475 26.2734C99.2475 26.1734 100.247 26.3734 99.3475 26.6734ZM80.9475 29.8734C81.2475 30.3734 80.8475 31.0734 79.9475 31.3734C79.1475 31.6734 78.6475 31.5734 79.0475 31.0734C79.3475 30.5734 78.9475 29.8734 78.3475 29.6734C77.5475 29.2734 77.6475 29.0734 78.7475 29.0734C79.6475 28.9734 80.6475 29.3734 80.9475 29.8734ZM91.6475 30.6734C87.3475 31.4734 91.5475 32.8734 96.5475 32.2734C100.047 31.8734 101.547 32.1734 102.747 33.3734C103.647 34.2734 105.247 34.9734 106.247 35.0734C107.247 35.1734 106.247 35.5734 104.147 36.0734C102.047 36.5734 100.047 36.7734 99.7475 36.4734C99.4475 36.1734 99.9475 35.9734 100.847 35.9734C101.847 35.9734 102.547 35.4734 102.547 34.9734C102.547 32.6734 88.1475 35.5734 80.7475 39.3734C78.9475 40.2734 77.1475 40.8734 76.6475 40.5734C74.4475 39.1734 63.2475 48.7734 56.8475 57.4734C55.6475 59.0734 54.5475 59.9734 54.5475 59.2734C54.5475 57.7734 64.3475 46.0734 69.3475 41.8734C72.0475 39.5734 72.2475 39.1734 70.2475 40.3734C68.6475 41.3734 67.1475 41.8734 66.8475 41.5734C66.5475 41.3734 68.2475 40.1734 70.5475 38.9734C72.8475 37.7734 74.4475 37.3734 74.0475 37.9734C73.6475 38.5734 75.2475 38.1734 77.5475 36.9734C79.8475 35.7734 82.3475 35.0734 83.1475 35.3734C84.0475 35.7734 84.3475 35.5734 83.9475 34.8734C83.5475 34.0734 84.0475 33.9734 85.5475 34.4734C87.2475 34.9734 87.6475 34.8734 87.0475 33.8734C86.4475 32.9734 86.7475 32.7734 88.1475 33.2734C89.9475 33.9734 89.9475 33.8734 88.2475 32.5734C86.4475 31.1734 86.4475 31.1734 88.2475 30.6734C89.2475 30.3734 90.9475 30.1734 92.0475 30.2734C93.4475 30.2734 93.3475 30.3734 91.6475 30.6734ZM70.0475 31.9734C69.7475 32.4734 68.5475 32.9734 67.5475 32.9734C66.5475 32.9734 65.3475 32.4734 65.0475 31.9734C64.6475 31.3734 65.7475 30.9734 67.5475 30.9734C69.3475 30.9734 70.4475 31.3734 70.0475 31.9734ZM85.4475 32.3734C84.6475 33.0734 75.5475 36.8734 75.5475 36.4734C75.5475 35.7734 82.9475 32.0734 84.4475 31.9734C85.2475 31.9734 85.6475 32.1734 85.4475 32.3734ZM93.4475 37.3734C93.2475 37.6734 89.4475 40.1734 85.0475 42.9734C79.7475 46.2734 78.2475 46.9734 80.5475 44.9734C82.4475 43.3734 83.5475 41.9734 83.0475 41.9734C81.6475 41.8734 85.4475 39.7734 89.5475 38.2734C93.4475 36.9734 94.0475 36.7734 93.4475 37.3734ZM118.847 39.6734C119.147 40.1734 117.047 40.3734 114.247 40.1734C105.047 39.6734 103.847 39.2734 111.247 39.0734C115.147 39.0734 118.647 39.2734 118.847 39.6734ZM133.247 40.4734C134.447 41.2734 136.147 41.6734 137.047 41.3734C139.147 40.5734 142.747 43.9734 146.747 50.4734C149.247 54.5734 149.447 55.0734 147.547 53.4734C146.347 52.3734 143.847 49.3734 141.847 46.7734C139.947 44.0734 137.847 41.9734 137.247 41.9734C136.647 41.9734 137.047 42.5734 138.147 43.3734C139.147 44.1734 139.747 45.0734 139.447 45.4734C139.047 45.7734 137.447 44.8734 135.647 43.4734C133.947 41.9734 132.047 41.1734 131.447 41.5734C130.647 42.0734 130.547 41.8734 131.047 40.9734C131.647 39.9734 131.447 39.7734 130.147 40.2734C129.147 40.6734 128.647 40.5734 129.047 39.9734C129.847 38.5734 130.747 38.6734 133.247 40.4734ZM75.4475 46.7734C72.4475 50.0734 68.5475 54.5734 66.6475 56.8734C64.8475 59.1734 63.1475 60.8734 62.8475 60.6734C62.6475 60.3734 63.1475 58.4734 64.0475 56.3734C65.1475 53.6734 65.8475 52.8734 66.4475 53.7734C67.0475 54.7734 67.7475 54.3734 69.0475 52.2734C70.8475 49.4734 79.3475 40.9734 80.3475 40.9734C80.6475 40.9734 78.4475 43.5734 75.4475 46.7734ZM148.447 43.1734C155.047 46.2734 158.647 48.9734 157.947 50.1734C157.547 50.7734 157.647 50.9734 158.247 50.6734C159.247 50.0734 163.147 53.4734 163.747 55.4734C163.947 55.9734 164.447 56.3734 164.947 56.1734C165.447 55.9734 165.447 56.4734 164.847 57.1734C164.047 58.1734 164.647 59.7734 167.147 63.3734C171.147 69.0734 171.747 67.2734 167.847 61.4734C165.247 57.5734 165.247 57.4734 167.647 59.6734C170.247 62.0734 172.947 67.9734 171.447 67.9734C170.947 67.9734 170.547 68.6734 170.547 69.5734C170.547 70.4734 171.047 70.7734 171.647 70.3734C172.347 69.9734 172.647 70.2734 172.347 71.0734C172.047 71.8734 172.447 74.6734 173.247 77.2734C175.547 84.9734 174.147 83.6734 171.647 75.6734C169.047 67.7734 163.147 58.2734 159.047 55.5734C157.647 54.6734 156.747 53.4734 157.047 52.9734C157.347 52.4734 157.047 51.7734 156.447 51.3734C155.647 50.8734 155.547 51.0734 156.047 51.9734C156.547 52.7734 156.347 53.0734 155.447 52.7734C154.647 52.4734 154.147 51.6734 154.347 51.0734C154.447 50.3734 154.147 50.1734 153.547 50.4734C152.947 50.8734 151.547 50.3734 150.447 49.3734C149.447 48.4734 148.247 47.9734 147.847 48.2734C147.547 48.6734 146.547 47.9734 145.747 46.8734C144.547 45.0734 144.447 44.5734 145.647 43.7734C146.747 42.9734 146.647 42.8734 145.347 43.2734C144.447 43.5734 143.147 43.1734 142.547 42.3734C140.747 40.2734 143.047 40.5734 148.447 43.1734ZM70.6475 45.5734C68.2475 47.6734 66.6475 49.7734 66.9475 50.5734C67.2475 51.3734 66.9475 51.8734 66.2475 51.6734C65.5475 51.5734 63.1475 55.2734 60.8475 59.9734L56.6475 68.4734L57.2475 62.9734C57.8475 56.7734 61.7475 51.1734 69.4475 45.1734C75.1475 40.8734 75.9475 41.0734 70.6475 45.5734ZM120.047 43.0734C123.247 43.6734 128.347 45.2734 131.347 46.6734L136.947 49.1734L133.947 50.4734L131.047 51.6734L136.047 52.3734C138.847 52.7734 142.147 53.7734 143.347 54.6734C145.547 55.9734 150.047 64.5734 154.647 75.9734C156.247 79.8734 156.447 80.1734 156.547 77.6734C156.547 76.1734 155.247 71.9734 153.547 68.2734C151.947 64.6734 150.547 61.4734 150.547 61.1734C150.547 60.7734 152.347 62.2734 154.547 64.4734C156.847 66.7734 159.447 70.7734 160.947 74.4734C163.547 80.8734 165.547 93.7734 163.947 92.6734C163.347 92.3734 163.247 94.6734 163.747 98.7734C164.847 108.873 164.447 111.473 163.147 103.273C162.447 99.2734 161.647 95.6734 161.247 95.3734C160.847 94.9734 160.547 99.7734 160.547 106.073C160.547 118.873 160.547 118.873 151.847 129.473C147.847 134.373 146.147 135.673 142.547 136.573C140.047 137.173 138.147 138.173 138.247 138.773C138.647 140.273 132.747 144.473 128.547 145.773C124.247 147.073 112.747 148.973 109.147 148.973C105.347 148.973 98.8475 145.673 92.5475 140.473C89.6475 138.073 86.9475 136.273 86.6475 136.473C85.9475 137.273 92.5475 143.773 96.4475 146.173C99.5475 148.073 99.6475 148.373 97.9475 149.073C95.0475 150.173 94.9475 150.173 91.8475 147.573C90.2475 146.173 86.7475 144.573 84.1475 143.873C80.2475 142.873 78.6475 141.673 73.9475 136.073C70.9475 132.473 67.7475 127.673 66.7475 125.473C65.8475 123.273 64.0475 119.573 62.8475 117.173C61.5475 114.773 60.5475 110.973 60.4475 108.673C60.3475 106.373 60.0475 103.373 59.6475 101.973C59.0475 100.073 58.7475 101.273 58.1475 106.673C57.6475 111.473 57.8475 114.573 58.5475 115.973C59.1475 117.173 59.5475 118.573 59.3475 119.173C58.5475 121.473 54.5475 108.573 54.6475 104.173L54.7475 99.4734L56.1475 103.973C57.2475 107.573 57.4475 107.773 57.0475 105.073C56.7475 103.273 56.5475 99.1734 56.4475 96.0734L56.3475 90.4734L54.0475 97.4734C52.7475 101.273 51.6475 105.373 51.6475 106.473C51.5475 107.573 51.1475 109.073 50.6475 109.773C49.9475 110.873 49.7475 110.773 49.2475 109.473C48.8475 108.573 48.9475 108.173 49.5475 108.473C50.1475 108.873 50.5475 107.673 50.6475 105.773C50.6475 101.573 56.0475 87.0734 56.8475 89.0734C57.1475 89.8734 57.4475 89.0734 57.4475 87.3734C57.5475 83.0734 59.3475 78.0734 62.1475 74.2734C63.4475 72.5734 64.5475 70.4734 64.5475 69.7734C64.5475 69.0734 65.6475 66.1734 66.9475 63.4734C69.7475 57.2734 76.2475 51.4734 85.4475 46.5734C93.3475 42.4734 96.0475 41.7734 89.8475 45.5734C87.4475 46.9734 85.5475 48.2734 85.5475 48.4734C85.5475 48.6734 88.1475 47.6734 91.3475 46.2734C96.1475 44.0734 102.747 42.7734 112.147 42.0734C113.247 42.0734 116.847 42.4734 120.047 43.0734ZM139.747 46.3734C140.347 45.9734 140.547 46.0734 140.147 46.7734C139.847 47.3734 140.347 48.2734 141.247 48.8734C144.747 50.8734 141.347 49.8734 136.747 47.5734C130.047 44.0734 127.047 41.3734 133.347 44.4734C136.247 45.8734 139.147 46.7734 139.747 46.3734ZM56.9475 50.3734C56.0475 51.8734 55.0475 52.7734 54.7475 52.5734C54.5475 52.2734 55.0475 50.8734 55.9475 49.3734C56.9475 47.9734 57.9475 47.0734 58.2475 47.2734C58.4475 47.5734 57.9475 48.9734 56.9475 50.3734ZM152.947 55.5734C153.247 56.3734 153.147 56.7734 152.547 56.4734C151.947 56.1734 151.547 55.4734 151.547 54.8734C151.547 53.4734 152.247 53.7734 152.947 55.5734ZM159.947 65.0734C160.447 66.7734 160.047 66.4734 158.547 63.9734C156.947 61.2734 156.647 61.0734 157.147 62.9734C157.547 64.3734 157.447 65.1734 157.047 64.7734C156.647 64.3734 156.147 61.8734 155.947 59.2734L155.647 54.4734L157.447 58.5734C158.547 60.8734 159.647 63.7734 159.947 65.0734ZM54.5475 72.9734C53.5475 78.1734 52.4475 84.1734 52.0475 86.3734C51.7475 88.4734 51.1475 89.9734 50.8475 89.6734C50.3475 89.0734 52.9475 72.5734 54.6475 66.6734C56.4475 60.0734 56.3475 63.0734 54.5475 72.9734ZM177.447 70.4734C177.447 70.9734 176.847 70.3734 176.047 68.9734C175.247 67.5734 174.647 65.9734 174.647 65.4734C174.647 64.8734 175.247 65.5734 176.047 66.9734C176.847 68.3734 177.447 69.8734 177.447 70.4734ZM47.8475 73.4734C47.0475 77.2734 46.5475 82.2734 46.7475 84.5734C47.0475 88.0734 46.7475 88.5734 44.8475 88.7734C42.4475 88.9734 41.9475 88.0734 43.4475 86.3734C43.8475 85.8734 44.8475 82.5734 45.4475 78.9734C46.7475 72.1734 48.5475 65.5734 49.0475 66.1734C49.2475 66.3734 48.6475 69.5734 47.8475 73.4734ZM58.6475 75.5734C56.9475 78.1734 55.5475 79.6734 55.5475 78.7734C55.5475 76.5734 57.6475 70.8734 59.4475 67.9734L61.0475 65.5734L61.3475 68.1734C61.5475 69.7734 60.4475 72.5734 58.6475 75.5734ZM164.247 74.6734C163.947 75.6734 163.747 75.0734 163.747 73.4734C163.747 71.7734 163.947 71.0734 164.247 71.6734C164.447 72.3734 164.447 73.7734 164.247 74.6734ZM167.347 83.4734C167.347 89.1734 167.247 89.2734 166.447 85.4734C166.047 83.2734 165.647 79.4734 165.747 76.9734C165.747 73.2734 165.847 72.8734 166.547 74.9734C166.947 76.3734 167.347 80.1734 167.347 83.4734ZM171.447 88.1734C172.047 92.8734 171.947 97.1734 170.947 102.673C170.247 106.973 169.847 111.373 170.147 112.473C170.547 114.173 170.447 114.273 169.547 112.973C168.647 111.773 168.547 112.073 169.047 114.273C169.447 116.373 169.347 116.973 168.447 116.373C167.547 115.873 167.447 116.173 167.847 117.273C168.147 118.273 168.047 118.973 167.447 118.973C166.847 118.973 166.647 119.373 167.047 119.973C167.347 120.473 165.147 124.973 162.047 129.873C158.147 136.173 156.047 138.673 155.047 138.373C153.847 137.873 153.947 137.273 155.647 134.773C156.847 133.173 158.047 132.073 158.347 132.373C159.147 133.273 165.747 121.173 165.047 120.073C164.747 119.573 165.447 117.373 166.547 115.273C168.447 111.673 171.147 97.1734 170.047 96.1734C169.847 95.8734 169.147 96.7734 168.547 98.0734C167.647 100.173 167.547 99.9734 168.147 96.9734C168.847 93.1734 168.747 80.3734 168.047 75.4734C167.747 73.4734 168.147 73.9734 169.147 76.9734C169.947 79.4734 171.047 84.4734 171.447 88.1734ZM177.247 85.1734C177.047 86.9734 176.847 85.5734 176.847 81.9734C176.847 78.3734 177.047 76.9734 177.247 78.6734C177.447 80.4734 177.447 83.4734 177.247 85.1734ZM33.9475 78.5734C34.2475 79.3734 34.1475 79.7734 33.5475 79.4734C32.9475 79.1734 32.5475 79.3734 32.5475 80.0734C32.5475 80.7734 32.3475 81.0734 32.0475 80.7734C31.5475 80.2734 32.4475 76.9734 33.0475 76.9734C33.2475 76.9734 33.6475 77.6734 33.9475 78.5734ZM42.8475 81.3734C42.4475 84.0734 42.0475 84.7734 41.4475 83.6734C40.9475 82.8734 41.1475 81.1734 41.8475 79.6734C43.3475 76.3734 43.6475 76.7734 42.8475 81.3734ZM49.2475 84.6734C48.9475 85.6734 48.7475 85.0734 48.7475 83.4734C48.7475 81.7734 48.9475 81.0734 49.2475 81.6734C49.4475 82.3734 49.4475 83.7734 49.2475 84.6734ZM182.447 97.9734C182.347 102.673 182.247 105.973 182.047 105.473C181.247 103.273 180.847 85.5734 181.647 87.4734C182.047 88.5734 182.447 93.2734 182.447 97.9734ZM174.947 97.3734C173.947 101.573 173.047 104.773 172.847 104.573C172.547 104.373 173.147 100.673 174.047 96.4734C175.047 92.2734 175.947 89.0734 176.147 89.2734C176.447 89.4734 175.847 93.1734 174.947 97.3734ZM46.8475 115.973C47.7475 118.973 49.6475 123.273 50.9475 125.473L53.3475 129.473L53.0475 120.973C52.8475 116.273 52.8475 113.573 53.1475 114.973C56.1475 130.373 58.0475 136.473 60.8475 139.573C62.4475 141.473 64.2475 142.673 64.9475 142.273C65.5475 141.973 65.7475 142.073 65.2475 142.473C64.4475 143.373 67.2475 146.973 68.8475 146.973C69.4475 146.973 69.0475 145.973 67.9475 144.773C66.2475 142.673 66.3475 142.673 69.3475 144.973C71.2475 146.373 72.5475 147.773 72.3475 148.073C71.9475 148.973 75.6475 152.973 76.8475 152.973C77.4475 152.973 77.0475 151.973 75.9475 150.773C74.2475 148.773 74.4475 148.873 77.5475 151.073C79.4475 152.473 82.5475 154.473 84.3475 155.373C86.2475 156.373 87.3475 157.473 86.9475 158.173C86.5475 158.773 86.6475 158.973 87.2475 158.673C87.8475 158.273 90.0475 158.673 92.1475 159.573C94.9475 160.773 98.2475 161.073 105.447 160.673C110.747 160.473 116.147 159.973 117.547 159.573C119.847 158.873 119.947 158.873 118.047 160.173C116.647 161.073 111.947 161.473 103.047 161.573C87.6475 161.773 85.9475 161.173 70.5475 149.473C60.2475 141.573 57.3475 138.773 56.8475 136.173C56.7475 135.273 56.1475 133.073 55.6475 131.473C54.9475 129.073 54.7475 128.973 54.6475 130.673C54.5475 132.973 52.3475 133.173 50.2475 130.973C49.2475 129.973 49.3475 129.773 50.6475 130.273C51.9475 130.673 51.6475 129.573 49.4475 125.173C47.8475 122.073 45.8475 116.773 45.0475 113.473C43.0475 105.973 42.0475 93.7734 43.1475 91.2734C43.6475 90.0734 44.1475 93.1734 44.5475 99.9734C44.9475 105.773 45.9475 112.973 46.8475 115.973ZM47.2475 93.6734C46.9475 94.6734 46.7475 94.0734 46.7475 92.4734C46.7475 90.7734 46.9475 90.0734 47.2475 90.6734C47.4475 91.3734 47.4475 92.7734 47.2475 93.6734ZM52.0475 93.6734C51.6475 94.6734 50.7475 97.4734 50.0475 99.9734C49.2475 102.673 48.6475 103.573 48.6475 102.273C48.5475 99.9734 51.3475 91.9734 52.2475 91.9734C52.5475 91.9734 52.4475 92.7734 52.0475 93.6734ZM40.2475 100.173C39.9475 100.873 39.7475 100.373 39.7475 98.9734C39.7475 97.5734 39.9475 97.0734 40.2475 97.6734C40.4475 98.3734 40.4475 99.5734 40.2475 100.173ZM41.2475 107.173C40.9475 107.873 40.7475 107.373 40.7475 105.973C40.7475 104.573 40.9475 104.073 41.2475 104.673C41.4475 105.373 41.4475 106.573 41.2475 107.173ZM181.247 111.173C180.947 111.873 180.747 111.373 180.747 109.973C180.747 108.573 180.947 108.073 181.247 108.673C181.447 109.373 181.447 110.573 181.247 111.173ZM162.547 117.673C161.547 119.273 161.447 119.173 161.947 116.973C162.247 115.573 162.547 113.573 162.647 112.473C162.747 111.173 162.947 111.373 163.247 113.173C163.447 114.673 163.147 116.673 162.547 117.673ZM176.247 115.673C175.947 116.673 175.747 116.073 175.747 114.473C175.747 112.773 175.947 112.073 176.247 112.673C176.447 113.373 176.447 114.773 176.247 115.673ZM43.2475 115.173C42.9475 115.973 42.6475 115.673 42.6475 114.573C42.5475 113.473 42.8475 112.873 43.1475 113.273C43.4475 113.573 43.5475 114.473 43.2475 115.173ZM64.3475 123.273C65.2475 125.573 65.9475 127.673 65.8475 127.973C65.8475 128.273 66.7475 129.773 67.9475 131.473C69.0475 133.073 70.0475 134.773 70.0475 135.173C70.0475 135.473 71.3475 136.973 72.8475 138.373C76.4475 141.673 75.2475 141.773 70.8475 138.373C67.3475 135.773 61.2475 126.173 62.1475 124.773C62.4475 124.373 62.2475 123.973 61.7475 123.973C60.4475 123.973 59.4475 121.273 60.1475 119.473C61.0475 117.273 62.4475 118.573 64.3475 123.273ZM175.447 122.973C175.547 124.173 175.347 124.173 174.647 123.073C174.047 122.173 173.547 123.173 173.147 126.073C172.747 128.473 171.547 132.273 170.447 134.473C169.447 136.673 168.847 137.573 169.247 136.473C169.547 135.373 170.847 130.773 171.947 126.173C173.347 120.573 174.247 118.473 174.747 119.673C175.047 120.673 175.447 122.173 175.447 122.973ZM57.5475 121.973C57.6475 120.673 61.3475 126.473 61.5475 128.073C61.5475 129.273 58.6475 128.573 58.1475 127.273C57.8475 126.473 58.0475 126.173 58.5475 126.473C59.8475 127.273 59.8475 125.973 58.5475 123.973C57.6475 122.673 57.5475 122.673 57.5475 123.973C57.5475 125.273 57.4475 125.273 56.5475 123.973C56.0475 123.173 55.5475 121.973 55.5475 121.473C55.5475 120.873 56.0475 121.173 56.5475 121.973C57.4475 123.273 57.5475 123.273 57.5475 121.973ZM47.4475 124.973C48.5475 127.373 48.5475 127.373 47.1475 125.573C46.2475 124.473 45.5475 123.173 45.5475 122.573C45.5475 121.373 46.0475 121.873 47.4475 124.973ZM168.647 133.673C167.447 135.673 167.247 135.073 168.147 132.473C168.547 131.573 169.047 131.073 169.247 131.373C169.547 131.573 169.247 132.673 168.647 133.673ZM176.047 132.973C175.047 134.073 173.747 134.973 173.147 134.973C172.547 134.873 173.147 133.973 174.447 132.973C177.447 130.373 178.347 130.373 176.047 132.973ZM72.9475 143.673C81.4475 151.373 87.9475 155.273 92.2475 155.473C94.0475 155.473 95.5475 155.473 95.5475 155.373C95.5475 155.273 93.9475 154.173 91.9475 153.073C88.3475 150.873 87.6475 148.873 91.2475 150.873C92.2475 151.373 94.8475 152.173 97.0475 152.573C100.347 153.073 100.747 153.373 99.0475 153.973C97.2475 154.773 97.2475 154.873 99.5475 154.873C100.947 154.973 102.647 155.373 103.447 155.873C104.347 156.473 102.647 156.873 98.4475 157.173C93.2475 157.473 91.1475 157.173 87.3475 155.273C83.2475 153.273 59.5475 134.573 59.5475 133.373C59.5475 132.473 65.8475 137.273 72.9475 143.673ZM160.547 145.473C158.147 147.973 155.947 149.973 155.647 149.973C155.347 149.973 157.147 147.973 159.547 145.473C161.947 142.973 164.147 140.973 164.447 140.973C164.747 140.973 162.947 142.973 160.547 145.473ZM138.047 146.973C136.447 148.573 134.947 149.773 134.647 149.473C134.447 149.173 133.147 149.873 131.947 151.073C130.547 152.373 128.747 152.973 127.147 152.773C124.147 152.473 123.547 150.673 126.147 150.173C127.247 149.873 127.547 150.173 127.047 150.973C126.547 151.773 126.747 152.073 127.647 151.773C128.447 151.473 128.947 150.673 128.847 150.073C128.547 148.973 129.847 148.573 132.447 148.873C133.147 149.073 133.447 148.673 133.147 148.173C132.847 147.573 133.347 147.373 134.347 147.673C135.347 147.873 136.947 147.173 137.947 146.073C139.047 144.873 140.047 143.973 140.347 143.973C140.647 143.973 139.647 145.273 138.047 146.973ZM65.8475 152.873C65.6475 153.173 64.2475 152.073 62.7475 150.473L60.0475 147.673L63.1475 150.073C64.8475 151.373 66.1475 152.673 65.8475 152.873ZM118.247 150.573C117.947 150.873 117.047 150.973 116.347 150.673C115.547 150.373 115.847 150.073 116.947 150.073C118.047 149.973 118.647 150.273 118.247 150.573ZM109.347 151.673C107.847 151.873 105.147 151.873 103.347 151.673C101.547 151.473 102.747 151.273 106.047 151.273C109.347 151.273 110.847 151.473 109.347 151.673ZM72.6475 154.673C73.9475 156.273 73.8475 156.373 72.3475 155.073C71.3475 154.373 70.5475 153.573 70.5475 153.373C70.5475 152.573 71.3475 153.073 72.6475 154.673ZM132.147 155.173C136.547 155.773 139.247 156.573 138.247 156.773C137.247 156.973 136.647 157.773 136.947 158.473C137.147 159.173 136.547 159.973 135.447 160.273C133.847 160.673 133.647 160.573 134.547 159.473C136.147 157.573 133.547 156.373 125.847 155.473C122.347 155.073 119.547 154.273 119.547 153.773C119.547 153.173 120.547 152.973 121.947 153.373C123.247 153.673 127.847 154.473 132.147 155.173ZM82.0475 160.473C83.1475 161.373 82.2475 161.173 80.0475 159.873C77.8475 158.673 75.6475 157.273 75.0475 156.673C73.4475 155.173 79.8475 158.673 82.0475 160.473ZM107.547 159.073C104.947 159.573 101.047 159.573 98.5475 159.073C94.6475 158.273 95.1475 158.173 103.047 158.173C110.947 158.173 111.547 158.273 107.547 159.073ZM81.5475 162.773L84.0475 164.173L81.0475 163.473C79.4475 163.173 77.3475 162.173 76.5475 161.373C75.2475 160.073 75.2475 159.973 77.0475 160.573C78.1475 161.073 80.1475 161.973 81.5475 162.773ZM131.547 161.973C130.747 162.473 129.147 162.873 128.047 162.873C126.447 162.773 126.447 162.673 128.547 161.973C132.047 160.873 133.347 160.873 131.547 161.973ZM115.347 168.673C114.347 168.873 112.747 168.873 111.847 168.673C110.847 168.373 111.647 168.173 113.547 168.173C115.447 168.173 116.247 168.373 115.347 168.673Z" fill="currentColor"/>
<path d="M65.2474 55.6736C64.8474 55.9736 64.5474 56.7736 64.5474 57.3736C64.5474 57.9736 65.0474 57.8736 65.7474 57.1736C66.3474 56.5736 66.6474 55.7736 66.4474 55.4736C66.1474 55.1736 65.5474 55.2736 65.2474 55.6736Z" fill="white"/>
<path d="M148.947 45.3733C150.047 46.2733 151.647 46.9733 152.447 46.8733C153.847 46.8733 153.847 46.7733 152.547 46.2733C151.747 45.9733 150.147 45.2733 149.047 44.7733C147.047 43.8733 147.047 43.8733 148.947 45.3733Z" fill="white"/>
<path d="M159.147 52.7735C158.847 53.2735 159.847 54.7735 161.347 56.0735C162.747 57.3735 163.447 57.7735 162.747 56.8735C162.147 55.9735 161.747 55.0735 162.047 54.7735C162.347 54.4735 161.947 53.6735 161.147 53.0735C160.347 52.3735 159.447 52.2735 159.147 52.7735Z" fill="currentColor"/>
<path d="M115.547 47.8737C113.547 48.5737 113.947 48.7737 118.147 48.8737C120.947 48.9737 124.647 49.4737 126.447 50.0737C130.147 51.3737 131.647 50.6737 128.647 49.0737C125.847 47.4737 118.547 46.8737 115.547 47.8737Z" fill="white"/>
<path d="M107.248 51.9735C105.248 52.3735 103.248 52.9735 102.848 53.2735C101.848 54.3735 105.448 53.9735 112.048 52.5735C116.748 51.4735 117.248 51.1735 114.548 51.1735C112.648 51.1735 109.348 51.5735 107.248 51.9735Z" fill="currentColor"/>
<path d="M99.9474 73.8736C100.447 74.5736 99.2474 74.7736 96.1474 74.3736C93.0474 73.8736 91.5474 74.0736 91.5474 74.8736C91.5474 75.4736 92.2474 75.9736 93.0474 75.9736C94.3474 75.9736 94.5474 78.5736 94.5474 93.4736C94.5474 110.274 94.4474 110.974 92.5474 110.974C91.4474 110.974 90.5474 111.374 90.5474 111.974C90.5474 112.574 95.6474 112.974 103.847 112.974C115.247 112.974 117.447 112.674 120.347 110.974C123.547 108.974 125.547 105.574 125.547 101.974C125.547 99.2736 121.347 94.7736 117.547 93.4736L114.247 92.3736L117.747 90.2736C122.247 87.6736 123.447 83.5736 121.047 78.9736C119.647 76.2736 119.247 75.9736 117.747 77.1736C116.647 78.0736 116.347 78.1736 116.947 77.1736C118.047 75.3736 113.447 73.9736 107.747 74.3736C105.147 74.4736 102.247 74.2736 101.147 73.6736C99.8474 73.0736 99.5474 73.0736 99.9474 73.8736ZM110.947 77.5736C113.147 79.6736 113.047 87.1736 110.847 89.8736C109.847 90.9736 107.947 92.0736 106.647 92.1736C104.347 92.4736 104.247 92.3736 104.447 84.9736C104.647 80.8736 104.947 77.1736 105.147 76.7736C106.047 75.4736 109.347 75.8736 110.947 77.5736ZM113.147 95.1736C113.747 95.2736 114.247 95.7736 114.347 96.3736C114.447 96.9736 114.847 99.1736 115.147 101.274C116.047 107.074 112.447 112.074 107.847 111.374C107.147 111.274 106.147 111.174 105.547 111.074C104.947 111.074 104.547 107.374 104.547 102.374V93.6736L108.347 94.3736C110.347 94.7736 112.547 95.1736 113.147 95.1736Z" fill="currentColor"/>
<path d="M155.148 89.7736L153.248 92.4736L155.648 90.2736C156.848 89.0736 157.748 87.8736 157.448 87.5736C157.248 87.3736 156.148 88.3736 155.148 89.7736Z" fill="currentColor"/>
<path d="M157.748 97.4736C157.648 101.874 157.248 106.574 157.048 107.974L156.448 110.474L157.548 108.074C158.148 106.674 158.448 101.974 158.248 97.5736L157.948 89.4736L157.748 97.4736Z" fill="white"/>
<path d="M154.248 118.474C153.248 120.874 150.748 125.074 148.848 127.674L145.248 132.474L148.948 128.974C153.248 124.974 156.848 118.674 156.348 115.874C156.148 114.474 155.548 115.274 154.248 118.474Z" fill="currentColor"/>
<path d="M70.0474 147.974C70.3474 148.474 71.1474 148.974 71.6474 148.974C72.2474 148.974 72.3474 148.474 72.0474 147.974C71.7474 147.374 70.9474 146.974 70.4474 146.974C69.8474 146.974 69.7474 147.374 70.0474 147.974Z" fill="currentColor"/>
<path d="M77.5474 153.374C77.5474 153.674 78.9474 154.574 80.5474 155.474C82.2474 156.374 83.5474 156.774 83.5474 156.574C83.5474 156.274 82.2474 155.374 80.5474 154.474C78.9474 153.574 77.5474 153.174 77.5474 153.374Z" fill="currentColor"/>
<path d="M89.2474 160.073C89.9474 160.773 90.7474 161.073 91.0474 160.773C91.3474 160.473 90.8474 159.873 89.8474 159.573C88.4474 158.973 88.3474 159.073 89.2474 160.073Z" fill="currentColor"/>
<path d="M147.547 22.9736C147.547 25.3736 149.047 25.6736 149.947 23.3736C150.847 21.1736 150.747 20.9736 149.047 20.9736C148.247 20.9736 147.547 21.8736 147.547 22.9736Z" fill="currentColor"/>
<path d="M74.5476 24.8734C74.5476 25.3734 73.7476 26.0734 72.8476 26.2734C71.8476 26.5734 73.0476 26.7734 75.4476 26.8734C80.1476 26.9734 80.2476 26.8734 76.8476 25.0734C75.5476 24.3734 74.5476 24.2734 74.5476 24.8734Z" fill="white"/>
<path d="M142.948 37.4734C145.448 39.3734 146.648 39.3734 145.948 37.4734C145.548 36.6734 144.348 35.9734 143.148 35.9734C141.048 36.0734 141.048 36.0734 142.948 37.4734Z" fill="currentColor"/>
<path d="M22.8476 92.4736C19.9476 93.6736 16.7476 97.5736 17.8476 98.5736C19.2476 99.9736 23.4476 97.4736 24.8476 94.3736C25.7476 92.4736 26.4476 90.9736 26.2476 90.9736C26.1476 91.0736 24.6476 91.6736 22.8476 92.4736Z" fill="white"/>
<path d="M35.1474 111.374C34.5474 114.474 34.6474 118.074 35.3474 120.874C35.9474 123.374 36.7474 127.274 37.0474 129.374C37.4474 131.874 38.0474 132.874 38.4474 132.074C39.9474 129.774 41.8474 136.674 41.2474 142.274L40.7474 147.474L42.4474 142.374L44.0474 137.274L46.5474 138.874C48.4474 139.974 48.2474 139.674 45.8474 137.274C42.2474 133.874 41.5474 131.674 44.3474 132.674C45.4474 133.074 45.0474 132.374 43.3474 130.674C40.0474 127.574 39.7474 126.474 42.5474 127.974C44.3474 128.974 44.4474 128.874 43.5474 126.474C42.9474 124.974 41.3474 122.174 39.8474 120.274C38.0474 117.874 36.8474 114.974 36.5474 111.574L35.9474 106.474L35.1474 111.374Z" fill="currentColor"/>
<path d="M161.448 166.874C163.248 170.374 165.648 171.874 169.148 171.974C169.848 171.974 170.548 170.874 170.748 169.574C171.148 167.374 170.648 166.874 165.848 165.074C162.848 163.874 160.148 162.974 159.948 162.974C159.748 162.974 160.348 164.674 161.448 166.874Z" fill="currentColor"/>
<path d="M55.4474 179.073C54.0474 181.773 55.0474 182.473 62.2474 183.973C67.1474 185.073 67.6474 184.973 71.6474 182.273L75.8474 179.473L67.4474 178.273C62.8474 177.673 58.5474 177.073 57.8474 177.073C57.1474 176.973 56.1474 177.973 55.4474 179.073Z" fill="white"/>
<path d="M76.5474 180.373C76.5474 180.773 77.2474 182.473 78.1474 184.073C79.6474 186.973 79.9474 187.173 84.3474 186.673C92.7474 185.773 95.9474 184.973 97.3474 183.573C98.5474 182.473 98.0474 182.173 94.3474 181.673C84.7474 180.373 76.5474 179.773 76.5474 180.373Z" fill="currentColor"/>
<path d="M74.5474 183.974C73.6474 185.574 73.7474 185.974 75.0474 185.974C75.8474 185.974 76.5474 185.074 76.5474 183.974C76.5474 182.874 76.3474 181.974 76.0474 181.974C75.8474 181.974 75.1474 182.874 74.5474 183.974Z" fill="white"/>
<path d="M100.648 190.574C100.648 191.674 100.948 191.974 101.248 191.174C101.548 190.474 101.448 189.574 101.148 189.274C100.848 188.874 100.548 189.474 100.648 190.574Z" fill="currentColor"/>
</svg>
