<svg width="241" height="260" viewBox="0 0 241 260" fill="none" xmlns="http://www.w3.org/2000/svg">
<path d="M227.822 63.335L215.884 64.816L195.815 80.809L197.159 87.984L179.343 90.9L171.988 87.529L170.643 79.845L163.422 80.02L165.128 93.27L146.79 93.703L121.821 86.002L100.271 74.179L106.398 62.15L90.8841 51.603L89.6101 41.434L93.7821 43.975L98.2611 41.155L93.1181 31.532L102.741 22.739L104.772 15.626L97.1131 12.953L82.9981 15.439L68.3971 2L52.2911 3.126L47.1451 9.69L58.7271 18.336L55.8581 21.297L52.9971 21.914L52.8141 35.434L63.0241 41.67L34.4101 80.535L22.2681 79.373L14.5911 89.807L26.4601 109.512L17.3241 113.75L7.18606 112.018L2.28906 116.552L10.5811 125.209L9.78406 132.863L23.9541 145.028L24.2501 144.8L37.8501 140.7L39.5821 147.898L39.8551 169.221L58.2161 223.805L62.6821 232.394L68.7411 252.441L73.5941 258L82.2051 257.339L83.8451 251.986L98.3111 235.424V233.897L98.0151 226.243L98.3571 225.15L102.366 211.822L101.957 211.572L102.116 211.185L102.366 211.822L102.207 211.048L100.157 197.766L101.957 191.866L134.397 168.287L140.16 160.633L143.737 154.984L153.578 152.455L162.076 137.579L167.497 134.252L175.448 136.394L168.5 105.412L168.181 93.908L177.999 95.798L179.594 102.428L184.265 104.774L200.826 105.002L199.186 109.284L200.621 116.712L204.198 130.198L210.167 121.153L208.959 113.112L214.745 113.727L218.96 99.625L222.879 88.44L234.451 81.128L238.711 74.794L227.822 63.335Z" fill="#E5E7EB"/>
</svg>
